<svg id="Layer_1" xmlns="http://www.w3.org/2000/svg" viewBox="0 0 237 120"><style>.st0{enable-background:new ;} .st1{}</style><title>This is a + Chrome + Experiment</title><g id="Page-1"><g id="Mobile-Home"><g id="Footer"><g id="google-logo---gray-_x2B_-This-is-a-_x2B_-Chrome-_x2B_-Experiment"><g id="This-is-a-_x2B_-Chrome-_x2B_-Experiment"><g class="st0"><path class="st1" d="M14.284 3.227h-5.5v15.1h-2.2v-15.1h-5.4v-1.9h13.1v1.9zM18.584 7.227c1-1.2 2.2-1.8 3.7-1.8 2.7 0 4 1.5 4 4.5v8.4h-2.2v-8.3c0-.9-.2-1.6-.6-2-.4-.4-1-.7-1.9-.7-.7 0-1.3.2-1.8.6s-.9.8-1.2 1.4v9h-2.2V.427h2.2v6.8zM29.584 2.327c0-.3.1-.6.3-.9s.5-.4 1-.4c.4 0 .7.1 1 .4.2.2.3.5.3.9s-.1.6-.3.9c-.2.2-.5.3-1 .3-.4 0-.7-.1-1-.3-.2-.2-.3-.5-.3-.9zm2.4 16h-2.2v-12.6h2.2v12.6zM42.784 15.027c0-.6-.2-1-.7-1.4s-1.2-.6-2.3-.8c-1.1-.2-2-.5-2.6-.8-.6-.3-1.1-.7-1.4-1.2-.3-.5-.5-1-.5-1.6 0-1 .4-1.9 1.3-2.6.9-.7 2-1.1 3.4-1.1s2.6.4 3.5 1.1c.9.7 1.3 1.7 1.3 2.8h-2.2c0-.6-.3-1.1-.8-1.5-.5-.4-1.1-.6-1.9-.6-.8 0-1.4.2-1.8.5-.4.3-.7.8-.7 1.3s.2.9.6 1.2c.4.3 1.2.5 2.2.8 1.1.2 1.9.5 2.6.9.7.3 1.2.7 1.5 1.2.3.5.5 1 .5 1.7 0 1.1-.5 2-1.4 2.7-.9.7-2.1 1-3.5 1-1 0-1.9-.2-2.7-.5-.8-.4-1.4-.9-1.8-1.5-.4-.6-.7-1.3-.7-2.1h2.2c0 .7.3 1.3.9 1.7.5.4 1.3.6 2.1.6s1.5-.2 2-.5.9-.8.9-1.3zM53.684 2.327c0-.3.1-.6.3-.9s.5-.4 1-.4c.4 0 .7.1 1 .4.2.2.3.5.3.9s-.1.6-.3.9c-.2.2-.5.3-1 .3-.4 0-.7-.1-1-.3-.2-.2-.3-.5-.3-.9zm2.3 16h-2.2v-12.6h2.2v12.6zM66.784 15.027c0-.6-.2-1-.7-1.4s-1.2-.6-2.3-.8c-1.1-.2-2-.5-2.6-.8-.6-.3-1.1-.7-1.4-1.2-.3-.5-.5-1-.5-1.6 0-1 .4-1.9 1.3-2.6.9-.7 2-1.1 3.4-1.1s2.6.4 3.5 1.1c.9.7 1.3 1.7 1.3 2.8h-2.2c0-.6-.3-1.1-.8-1.5-.5-.4-1.1-.6-1.9-.6-.8 0-1.4.2-1.8.5-.4.3-.7.8-.7 1.3s.2.9.6 1.2c.4.3 1.2.5 2.2.8 1.1.2 1.9.5 2.6.9.7.3 1.2.7 1.5 1.2.3.5.5 1 .5 1.7 0 1.1-.5 2-1.4 2.7-.9.7-2.1 1-3.5 1-1 0-1.9-.2-2.7-.5-.8-.4-1.4-.9-1.8-1.5-.4-.6-.7-1.3-.7-2.1h2.2c0 .7.3 1.3.9 1.7.5.4 1.3.6 2.1.6s1.5-.2 2-.5.9-.8.9-1.3zM85.384 18.327c-.1-.2-.2-.7-.3-1.3-1 1-2.2 1.6-3.6 1.6-1.2 0-2.3-.4-3.1-1.1-.8-.7-1.2-1.6-1.2-2.7 0-1.3.5-2.3 1.5-3.1 1-.7 2.4-1.1 4.2-1.1h2.1v-1c0-.8-.2-1.4-.7-1.8s-1.1-.7-2-.7c-.8 0-1.4.2-1.9.6s-.8.9-.8 1.4h-2c0-.6.2-1.2.7-1.8.4-.6 1.1-1.1 1.8-1.4s1.5-.4 2.5-.4c1.5 0 2.6.4 3.4 1.1.8.7 1.3 1.7 1.3 3v5.8c0 1.2.1 2.1.4 2.8v.1h-2.3zm-3.5-1.6c.7 0 1.3-.2 1.9-.5.6-.4 1-.8 1.3-1.4v-2.6h-1.7c-2.6 0-4 .8-4 2.3 0 .7.2 1.2.7 1.6s1.1.6 1.8.6z"/></g><g class="st0"><path class="st1" d="M30.384 53.327c-.4 3.5-1.7 6.3-3.9 8.2-2.2 1.9-5.1 2.9-8.8 2.9-3.9 0-7.1-1.4-9.5-4.2-2.3-2.9-3.5-6.7-3.5-11.4v-3.2c0-3.1.6-5.8 1.7-8.2s2.7-4.2 4.7-5.4c2-1.3 4.4-1.9 7.1-1.9 3.5 0 6.4 1 8.5 3 2.1 2 3.4 4.7 3.7 8.2h-4.4c-.4-2.7-1.2-4.6-2.5-5.8-1.3-1.2-3.1-1.8-5.4-1.8-2.8 0-5 1-6.6 3.1-1.6 2.1-2.4 5-2.4 8.9v3.2c0 3.6.8 6.5 2.3 8.7 1.5 2.1 3.6 3.2 6.4 3.2 2.4 0 4.3-.6 5.6-1.7s2.2-3 2.6-5.8h4.4zM39.984 42.127c1.9-2.3 4.3-3.5 7.3-3.5 5.2 0 7.9 3 7.9 8.9v16.4h-4.2v-16.4c0-1.8-.4-3.1-1.2-4-.8-.9-2.1-1.3-3.8-1.3-1.4 0-2.6.4-3.6 1.1-1 .7-1.9 1.7-2.4 2.9v17.7h-4.2v-35.2h4.2v13.4zM73.684 42.927c-.6-.1-1.3-.2-2.1-.2-2.8 0-4.7 1.2-5.7 3.6v17.6h-4.2v-24.8h4.1l.1 2.9c1.4-2.2 3.4-3.3 5.9-3.3.8 0 1.5.1 1.9.3v3.9zM75.984 51.327c0-2.4.5-4.6 1.4-6.6 1-1.9 2.3-3.4 4-4.5s3.7-1.6 5.8-1.6c3.4 0 6.1 1.2 8.2 3.5 2.1 2.3 3.1 5.5 3.1 9.3v.3c0 2.4-.5 4.6-1.4 6.5-.9 1.9-2.2 3.4-4 4.5-1.7 1.1-3.7 1.6-5.9 1.6-3.4 0-6.1-1.2-8.2-3.5-2.1-2.3-3.1-5.4-3.1-9.3v-.2zm4.3.5c0 2.8.6 5 1.9 6.6 1.3 1.7 3 2.5 5.1 2.5 2.2 0 3.9-.8 5.1-2.5 1.3-1.7 1.9-4.1 1.9-7.1 0-2.7-.6-4.9-1.9-6.6s-3-2.5-5.2-2.5c-2.1 0-3.8.8-5.1 2.5-1.2 1.6-1.8 4-1.8 7.1zM107.884 39.127l.1 2.8c1.8-2.1 4.3-3.2 7.4-3.2 3.5 0 5.8 1.3 7.1 4 .8-1.2 1.9-2.2 3.2-2.9s2.9-1.1 4.7-1.1c5.4 0 8.2 2.9 8.3 8.7v16.6h-4.2v-16.5c0-1.8-.4-3.1-1.2-4-.8-.9-2.2-1.3-4.1-1.3-1.6 0-2.9.5-3.9 1.4-1 .9-1.6 2.2-1.8 3.8v16.5h-4.3v-16.3c0-3.6-1.8-5.4-5.3-5.4-2.8 0-4.7 1.2-5.7 3.6v18.1h-4.2v-24.8h3.9zM155.384 64.427c-3.4 0-6.1-1.1-8.2-3.3s-3.2-5.2-3.2-8.9v-.8c0-2.5.5-4.7 1.4-6.6.9-1.9 2.3-3.5 3.9-4.5s3.5-1.6 5.5-1.6c3.2 0 5.7 1.1 7.5 3.2 1.8 2.1 2.7 5.2 2.7 9.1v1.8h-16.8c.1 2.4.8 4.4 2.1 5.9 1.4 1.5 3.1 2.3 5.2 2.3 1.5 0 2.8-.3 3.8-.9 1-.6 2-1.4 2.7-2.4l2.6 2c-1.9 3.1-5 4.7-9.2 4.7zm-.5-22.3c-1.7 0-3.2.6-4.3 1.9-1.2 1.2-1.9 3-2.2 5.2h12.4v-.3c-.1-2.2-.7-3.8-1.7-5-1-1.2-2.4-1.8-4.2-1.8z"/></g><g class="st0"><path class="st1" d="M24.784 94.327h-14.5v11.8h16.8v3.6h-21.2v-33.3h21v3.6h-16.6v10.8h14.5v3.5zM40.184 94.027l5.5-9.1h5l-8.1 12.3 8.4 12.6h-4.9l-5.7-9.3-5.7 9.3h-5.1l8.4-12.6-8.1-12.3h4.9l5.4 9.1zM76.184 97.627c0 3.8-.9 6.8-2.6 9.1-1.7 2.3-4.1 3.5-7 3.5-3 0-5.4-1-7.1-2.9v12h-4.2v-34.4h3.9l.2 2.8c1.7-2.1 4.1-3.2 7.2-3.2 3 0 5.3 1.1 7.1 3.4 1.7 2.2 2.6 5.4 2.6 9.4v.3zm-4.3-.5c0-2.8-.6-5-1.8-6.6-1.2-1.6-2.8-2.4-4.9-2.4-2.6 0-4.5 1.1-5.8 3.4v11.9c1.3 2.3 3.2 3.4 5.8 3.4 2 0 3.7-.8 4.9-2.4s1.8-4.1 1.8-7.3zM91.884 110.227c-3.4 0-6.1-1.1-8.2-3.3s-3.2-5.2-3.2-8.9v-.7c0-2.5.5-4.7 1.4-6.6.9-1.9 2.3-3.5 3.9-4.5 1.7-1.1 3.5-1.6 5.5-1.6 3.2 0 5.7 1.1 7.5 3.2 1.8 2.1 2.7 5.2 2.7 9.1v1.8h-16.7c.1 2.4.8 4.4 2.1 5.9 1.4 1.5 3.1 2.3 5.2 2.3 1.5 0 2.8-.3 3.8-.9 1-.6 2-1.4 2.7-2.4l2.6 2c-2 3-5.1 4.6-9.3 4.6zm-.5-22.2c-1.7 0-3.2.6-4.3 1.9-1.2 1.2-1.9 3-2.2 5.2h12.4v-.3c-.1-2.2-.7-3.8-1.7-5-1.1-1.2-2.5-1.8-4.2-1.8zM118.484 88.727c-.6-.1-1.3-.2-2.1-.2-2.8 0-4.7 1.2-5.7 3.6v17.6h-4.2v-24.8h4.1l.1 2.9c1.4-2.2 3.4-3.3 5.9-3.3.8 0 1.5.1 1.9.3v3.9zM122.384 78.327c0-.7.2-1.3.6-1.7.4-.5 1-.7 1.9-.7s1.5.2 1.9.7c.4.5.6 1.1.6 1.7s-.2 1.3-.6 1.7c-.4.5-1.1.7-1.9.7s-1.4-.2-1.9-.7-.6-1-.6-1.7zm4.6 31.5h-4.2v-24.9h4.2v24.9zM137.784 84.927l.1 2.8c1.8-2.1 4.3-3.2 7.4-3.2 3.5 0 5.8 1.3 7.1 4 .8-1.2 1.9-2.2 3.2-2.9 1.3-.7 2.9-1.1 4.7-1.1 5.4 0 8.2 2.9 8.3 8.7v16.6h-4.2v-16.4c0-1.8-.4-3.1-1.2-4-.8-.9-2.2-1.3-4.1-1.3-1.6 0-2.9.5-3.9 1.4-1 .9-1.6 2.2-1.8 3.8v16.5h-4.3v-16.3c0-3.6-1.8-5.4-5.3-5.4-2.8 0-4.7 1.2-5.7 3.6v18.1h-4.2v-24.9h3.9zM185.284 110.227c-3.4 0-6.1-1.1-8.2-3.3s-3.2-5.2-3.2-8.9v-.7c0-2.5.5-4.7 1.4-6.6.9-1.9 2.3-3.5 3.9-4.5 1.7-1.1 3.5-1.6 5.5-1.6 3.2 0 5.7 1.1 7.5 3.2 1.8 2.1 2.7 5.2 2.7 9.1v1.8h-16.8c.1 2.4.8 4.4 2.1 5.9 1.4 1.5 3.1 2.3 5.2 2.3 1.5 0 2.8-.3 3.8-.9 1-.6 2-1.4 2.7-2.4l2.6 2c-1.9 3-5 4.6-9.2 4.6zm-.5-22.2c-1.7 0-3.2.6-4.3 1.9s-1.9 3-2.2 5.2h12.4v-.3c-.1-2.2-.7-3.8-1.7-5-1-1.2-2.5-1.8-4.2-1.8zM203.884 84.927l.1 3.1c1.9-2.4 4.4-3.6 7.4-3.6 5.2 0 7.9 3 7.9 8.9v16.4h-4.2v-16.4c0-1.8-.4-3.1-1.2-4-.8-.9-2.1-1.3-3.8-1.3-1.4 0-2.6.4-3.6 1.1-1 .7-1.9 1.7-2.4 2.9v17.7h-4.2v-24.8h4zM231.584 78.927v6h4.6v3.3h-4.6v15.4c0 1 .2 1.7.6 2.2.4.5 1.1.7 2.1.7.5 0 1.2-.1 2-.3v3.4c-1.1.3-2.2.5-3.3.5-1.9 0-3.3-.6-4.3-1.7s-1.4-2.8-1.4-4.9v-15.3h-4.5v-3.3h4.5v-6h4.3z"/></g></g></g></g></g></g></svg>