<?xml version="1.0" encoding="UTF-8"?>
<svg width="18px" height="20px" viewBox="0 0 18 20" version="1.1" xmlns="http://www.w3.org/2000/svg" xmlns:xlink="http://www.w3.org/1999/xlink">
    <!-- Generator: Sketch 50.2 (55047) - http://www.bohemiancoding.com/sketch -->
    <title>Icons / Jazz</title>
    <desc>Created with Sketch.</desc>
    <defs>
        <polygon id="path-1" points="0.000117631447 0 17.5054286 0 17.5054286 20 0.000117631447 20"></polygon>
    </defs>
    <g id="Global-Elements" stroke="none" stroke-width="1" fill="none" fill-rule="evenodd">
        <g id="Global-Elements-/-Global-Elements-02" transform="translate(-292.000000, -805.000000)">
            <g id="Dropdown" transform="translate(289.000000, 738.000000)">
                <g id="Icons-/-Jazz" transform="translate(3.000000, 67.000000)">
                    <g>
                        <mask id="mask-2" fill="white">
                            <use xlink:href="#path-1"></use>
                        </mask>
                        <g id="Clip-2"></g>
                        <path d="M17.4697714,9.31533333 L15.4126286,4.31533333 C15.3594857,4.18616667 15.2532,4.08533333 15.1194857,4.03533333 C14.9866286,3.97783333 14.8357714,3.97783333 14.7029143,4.03533333 C11.9514857,5.39033333 10.3057714,7.80033333 10.3057714,10.5003333 L10.3057714,13.0003333 C10.3057714,13.552 9.84548571,14.0003333 9.2772,14.0003333 C8.70891429,14.0003333 8.24862857,13.552 8.24862857,13.0003333 L8.24862857,11.0003333 L6.70577143,11.0003333 C6.42205714,11.0003333 6.19148571,10.7761667 6.19148571,10.5003333 C6.19148571,10.2236667 6.42205714,10.0003333 6.70577143,10.0003333 L8.24862857,10.0003333 L8.24862857,9.00033333 L6.70577143,9.00033333 C6.42205714,9.00033333 6.19148571,8.77616667 6.19148571,8.50033333 C6.19148571,8.22366667 6.42205714,8.00033333 6.70577143,8.00033333 L8.24862857,8.00033333 L8.24862857,7.00033333 L6.70577143,7.00033333 C6.42205714,7.00033333 6.19148571,6.77616667 6.19148571,6.50033333 C6.19148571,6.2245 6.42205714,6.00033333 6.70577143,6.00033333 L8.24862857,6.00033333 L8.24862857,5.50033333 C8.24862857,2.46283333 5.71577143,0.000333333333 2.59148571,0.000333333333 L0.534342857,0.000333333333 C0.298628571,-0.00883333333 0.0860571429,0.1395 0.0209142857,0.360333333 C-0.0433714286,0.572833333 0.0449142857,0.801166667 0.236914286,0.920333333 C0.3372,0.980333333 0.441771429,1.03366667 0.549771429,1.08033333 C1.3272,1.44033333 3.10577143,2.28533333 3.10577143,5.50033333 L3.10577143,14.5003333 C3.10577143,17.6345 5.76977143,20.0003333 9.2772,20.0003333 C12.7846286,20.0003333 15.4486286,17.6345 15.4486286,14.5003333 C15.4486286,11.5003333 15.4486286,10.8103333 17.2229143,9.94533333 C17.4603429,9.82866667 17.5674857,9.55616667 17.4697714,9.31533333" id="Fill-1" fill="#000000" mask="url(#mask-2)"></path>
                    </g>
                </g>
            </g>
        </g>
    </g>
</svg>