<?xml version="1.0" encoding="UTF-8"?>
<svg width="20px" height="20px" viewBox="0 0 20 20" version="1.1" xmlns="http://www.w3.org/2000/svg" xmlns:xlink="http://www.w3.org/1999/xlink">
    <!-- Generator: Sketch 50.2 (55047) - http://www.bohemiancoding.com/sketch -->
    <title>Icons / Orchestra</title>
    <desc>Created with Sketch.</desc>
    <defs></defs>
    <g id="Global-Elements" stroke="none" stroke-width="1" fill="none" fill-rule="evenodd">
        <g id="Global-Elements-/-Global-Elements-02" transform="translate(-289.000000, -749.000000)" fill="#000000">
            <g id="Dropdown" transform="translate(289.000000, 738.000000)">
                <g id="Icons-/-Orchestra" transform="translate(0.000000, 11.000000)">
                    <path d="M12.4130026,12.6772437 C12.0190026,12.7412437 11.6390026,12.6682437 11.2990026,12.5112437 L12.0330026,11.6622437 C12.1160026,11.5662437 12.1110026,11.4222437 12.0210026,11.3312437 L10.3560026,9.64424369 C10.4290026,9.59324369 10.5070026,9.55224369 10.5660026,9.47924369 C10.8740026,9.10124369 11.3080026,8.85024369 11.7900026,8.77424369 C12.3120026,8.69024369 12.8330026,8.81424369 13.2610026,9.12524369 C13.6870026,9.43524369 13.9700026,9.89324369 14.0530026,10.4142437 C14.2250026,11.4902437 13.4890026,12.5042437 12.4130026,12.6772437 M18.4330026,3.43424369 C17.9400026,3.43424369 17.5410026,3.83424369 17.5410026,4.32524369 L17.5410026,5.13124369 L16.0480026,0.895243694 C15.8760026,0.408243694 15.3420026,0.153243694 14.8540026,0.323243694 C14.3670026,0.495243694 14.1110026,1.03024369 14.2820026,1.51724369 L15.8780026,6.04224369 L12.4220026,0.721243694 C12.1130026,0.247243694 11.4780026,0.113243694 11.0030026,0.420243694 C10.5280026,0.729243694 10.3930026,1.36424369 10.7020026,1.83924369 L13.3390026,5.89624369 L16.7250026,7.73024369 C16.9620026,7.85824369 17.0510026,8.15624369 16.9220026,8.39324369 C16.8340026,8.55624369 16.6650026,8.64924369 16.4920026,8.64924369 C16.4130026,8.64924369 16.3340026,8.63024369 16.2590026,8.59024369 C16.2590026,8.59024369 14.3460026,7.54724369 13.5060026,7.09524369 C13.5000026,7.09224369 12.5330026,6.56924369 11.2410026,6.83224369 C11.1580026,6.85124369 11.0760026,6.87224369 10.9950026,6.89624369 C10.8860026,6.92624369 10.7770026,6.95824369 10.6660026,7.00124369 C10.0170026,7.25124369 9.43600265,7.65424369 8.99200265,8.20224369 C8.98300265,8.21424369 8.97700265,8.22624369 8.96900265,8.23824369 L1.08100265,0.245243694 C0.946002648,0.100243694 0.751002648,0.00924369358 0.562002648,0.00424369358 C0.379002648,-0.0177563064 0.267002648,0.0482436936 0.163002648,0.145243694 C-0.0689973516,0.365243694 -0.0509973516,0.813243694 0.202002648,1.08524369 L8.75900265,10.2862437 C8.35000265,10.4642437 8.09800265,10.8862437 8.14700265,11.3562437 C8.28200265,12.6412437 9.26100265,13.7192437 9.97200265,14.2082437 L13.9760026,17.1312437 L13.9760026,19.9992437 L19.3240026,19.9992437 L19.3240026,4.32524369 C19.3240026,3.83424369 18.9260026,3.43424369 18.4330026,3.43424369" id="Fill-1"></path>
                </g>
            </g>
        </g>
    </g>
</svg>