<?xml version="1.0" encoding="UTF-8"?>
<svg width="380px" height="360px" viewBox="0 0 380 360" version="1.1" xmlns="http://www.w3.org/2000/svg" xmlns:xlink="http://www.w3.org/1999/xlink">
    <!-- Generator: Sketch 51.2 (57519) - http://www.bohemiancoding.com/sketch -->
    <title>Input Method - KeyboardMouse</title>
    <desc>Created with Sketch.</desc>
    <defs></defs>
    <g id="Input-Method---KeyboardMouse" stroke="none" stroke-width="1" fill="none" fill-rule="evenodd">
        <path d="M99,212.962963 C98.4477153,212.962963 98,212.515248 98,211.962963 L98,186.037037 C98,185.484752 98.4477153,185.037037 99,185.037037 L124.925926,185.037037 C125.478211,185.037037 125.925926,185.484752 125.925926,186.037037 L125.925926,211.962963 C125.925926,212.515248 125.478211,212.962963 124.925926,212.962963 L99,212.962963 Z M123.925926,210.962963 L123.925926,187.037037 L100,187.037037 L100,210.962963 L123.925926,210.962963 Z" id="Stroke-6" fill="#AAAAAA" fill-rule="nonzero"></path>
        <path d="M136.037037,212.962963 C135.484752,212.962963 135.037037,212.515248 135.037037,211.962963 L135.037037,186.037037 C135.037037,185.484752 135.484752,185.037037 136.037037,185.037037 L161.962963,185.037037 C162.515248,185.037037 162.962963,185.484752 162.962963,186.037037 L162.962963,211.962963 C162.962963,212.515248 162.515248,212.962963 161.962963,212.962963 L136.037037,212.962963 Z M160.962963,210.962963 L160.962963,187.037037 L137.037037,187.037037 L137.037037,210.962963 L160.962963,210.962963 Z" id="Stroke-8" fill="#AAAAAA" fill-rule="nonzero"></path>
        <path d="M136.037037,175.925926 C135.484752,175.925926 135.037037,175.478211 135.037037,174.925926 L135.037037,149 C135.037037,148.447715 135.484752,148 136.037037,148 L161.962963,148 C162.515248,148 162.962963,148.447715 162.962963,149 L162.962963,174.925926 C162.962963,175.478211 162.515248,175.925926 161.962963,175.925926 L136.037037,175.925926 Z M160.962963,173.925926 L160.962963,150 L137.037037,150 L137.037037,173.925926 L160.962963,173.925926 Z" id="Stroke-10" fill="#AAAAAA" fill-rule="nonzero"></path>
        <path d="M173.074074,212.962963 C172.521789,212.962963 172.074074,212.515248 172.074074,211.962963 L172.074074,186.037037 C172.074074,185.484752 172.521789,185.037037 173.074074,185.037037 L199,185.037037 C199.552285,185.037037 200,185.484752 200,186.037037 L200,211.962963 C200,212.515248 199.552285,212.962963 199,212.962963 L173.074074,212.962963 Z M198,210.962963 L198,187.037037 L174.074074,187.037037 L174.074074,210.962963 L198,210.962963 Z" id="Stroke-11" fill="#AAAAAA" fill-rule="nonzero"></path>
        <path d="M153.045003,196.038238 C153.65799,195.480978 154.606662,195.526153 155.163922,196.139139 C155.721183,196.752125 155.676008,197.700798 155.063022,198.258058 L149.758238,203.080589 C149.186106,203.600709 148.312351,203.600709 147.740219,203.080589 L142.435435,198.258058 C141.822449,197.700798 141.777274,196.752125 142.334534,196.139139 C142.891795,195.526153 143.840467,195.480978 144.453454,196.038238 L148.749228,199.943488 L153.045003,196.038238 Z" id="Stroke-14" fill="#3F3F3F" fill-rule="nonzero"></path>
        <path d="M115.117626,203.045003 C115.674887,203.65799 115.629712,204.606662 115.016725,205.163922 C114.403739,205.721183 113.455066,205.676008 112.897806,205.063022 L108.075275,199.758238 C107.555155,199.186106 107.555155,198.312351 108.075275,197.740219 L112.897806,192.435435 C113.455066,191.822449 114.403739,191.777274 115.016725,192.334534 C115.629712,192.891795 115.674887,193.840467 115.117626,194.453454 L111.212376,198.749228 L115.117626,203.045003 Z" id="Stroke-15" fill="#3F3F3F" fill-rule="nonzero"></path>
        <path d="M184.001201,194.453454 C183.443941,193.840467 183.489115,192.891795 184.102102,192.334534 C184.715088,191.777274 185.663761,191.822449 186.221021,192.435435 L191.043552,197.740219 C191.563672,198.312351 191.563672,199.186106 191.043552,199.758238 L186.221021,205.063022 C185.663761,205.676008 184.715088,205.721183 184.102102,205.163922 C183.489115,204.606662 183.443941,203.65799 184.001201,203.045003 L187.906451,198.749228 L184.001201,194.453454 Z" id="Stroke-16" fill="#3F3F3F" fill-rule="nonzero"></path>
        <path d="M144.453454,166.043552 C143.840467,166.600812 142.891795,166.555638 142.334534,165.942651 C141.777274,165.329665 141.822449,164.380992 142.435435,163.823732 L147.740219,159.001201 C148.312351,158.481081 149.186106,158.481081 149.758238,159.001201 L155.063022,163.823732 C155.676008,164.380992 155.721183,165.329665 155.163922,165.942651 C154.606662,166.555638 153.65799,166.600812 153.045003,166.043552 L148.749228,162.138302 L144.453454,166.043552 Z" id="Stroke-13" fill="#3F3F3F" fill-rule="nonzero"></path>
        <g id="Group" transform="translate(218.500000, 150.500000)" fill-rule="nonzero">
            <path d="M10,18 C14.418278,18 18,14.418278 18,10 C18,5.581722 14.418278,2 10,2 C5.581722,2 2,5.581722 2,10 C2,14.418278 5.581722,18 10,18 Z M10,20 C4.4771525,20 0,15.5228475 0,10 C0,4.4771525 4.4771525,0 10,0 C15.5228475,0 20,4.4771525 20,10 C20,15.5228475 15.5228475,20 10,20 Z" id="Oval" fill="#2455F0"></path>
            <path d="M10,18 C14.418278,18 18,14.418278 18,10 C18,5.581722 14.418278,2 10,2 C5.581722,2 2,5.581722 2,10 C2,14.418278 5.581722,18 10,18 Z" id="Path" fill-opacity="0.75" fill="#0054FF"></path>
        </g>
        <g id="Cursor" transform="translate(232.000000, 163.000000)" fill="#AAAAAA" fill-rule="nonzero">
            <path d="M18.5495709,40.7398682 C17.7577664,42.2296972 15.5905808,42.1300869 14.9387799,40.5739056 L-1.57202815,1.15418338 C-2.26408281,-0.49810415 -0.601865953,-2.15700269 1.04903534,-1.46164764 L40.3592677,15.0957135 C41.9104481,15.7490664 42.0100723,17.9094547 40.5256046,18.7027935 L26.1898602,26.3641946 L18.5495709,40.7398682 Z M4.00919002,4.125497 L16.9979214,35.1362252 L22.9436978,23.9488818 C23.1301165,23.5981235 23.4167598,23.3108203 23.7670884,23.1235954 L34.938982,17.1530398 L4.00919002,4.125497 Z" id="Stroke-2"></path>
            <path d="M24.5779075,27.4062905 C23.8012347,26.6208905 23.8083095,25.3545803 24.5937095,24.5779075 C25.3791095,23.8012347 26.6454197,23.8083095 27.4220925,24.5937095 L49.0501763,46.4648206 C49.8268491,47.2502206 49.8197743,48.5165308 49.0343743,49.2932036 C48.2489743,50.0698764 46.9826641,50.0628016 46.2059913,49.2774016 L24.5779075,27.4062905 Z" id="Stroke-4"></path>
        </g>
    </g>
</svg>