<?xml version="1.0" encoding="UTF-8"?>
<svg width="380px" height="360px" viewBox="0 0 380 360" version="1.1" xmlns="http://www.w3.org/2000/svg" xmlns:xlink="http://www.w3.org/1999/xlink">
    <!-- Generator: Sketch 51.2 (57519) - http://www.bohemiancoding.com/sketch -->
    <title>Input Method - Body</title>
    <desc>Created with Sketch.</desc>
    <defs></defs>
    <g id="Input-Method---Body" stroke="none" stroke-width="1" fill="none" fill-rule="evenodd">
        <g id="Group-2" transform="translate(131.000000, 108.000000)" fill-rule="nonzero">
            <path d="M59.5,90 C82.4198171,90 101,71.4198171 101,48.5 C101,25.5801829 82.4198171,7 59.5,7 C36.5801829,7 18,25.5801829 18,48.5 C18,71.4198171 36.5801829,90 59.5,90 Z M59.5,93 C34.9233286,93 15,73.0766714 15,48.5 C15,23.9233286 34.9233286,4 59.5,4 C84.0766714,4 104,23.9233286 104,48.5 C104,73.0766714 84.0766714,93 59.5,93 Z" id="Oval-2" fill="#AAAAAA"></path>
            <circle id="Oval" fill="#AAAAAA" cx="60" cy="28" r="3"></circle>
            <circle id="Oval" fill="#AAAAAA" cx="85" cy="28" r="3"></circle>
            <path d="M79.8322471,57.0585366 C80.352203,56.4136045 81.2965313,56.3122913 81.9414634,56.8322471 C82.5863955,57.352203 82.6877087,58.2965313 82.1677529,58.9414634 C80.3857658,61.1517676 76.5830182,62.5 72.3749721,62.5 C68.4187435,62.5 64.8105143,61.3061331 62.9149035,59.3200126 C62.3429312,58.7207304 62.3650703,57.771241 62.9643526,57.1992687 C63.5636348,56.6272964 64.5131242,56.6494355 65.0850965,57.2487177 C66.3403955,58.5639535 69.1694131,59.5 72.3749721,59.5 C75.7590439,59.5 78.7063459,58.4550587 79.8322471,57.0585366 Z" id="Stroke-1" fill="#AAAAAA"></path>
            <path d="M71.0108993,28.1804971 C70.9112136,27.3580895 71.4970954,26.6105851 72.3195029,26.5108993 C73.1419105,26.4112136 73.8894149,26.9970954 73.9891007,27.8195029 L75.9891007,44.3195029 C76.0887864,45.1419105 75.5029046,45.8894149 74.6804971,45.9891007 C73.8580895,46.0887864 73.1105851,45.5029046 73.0108993,44.6804971 L71.0108993,28.1804971 Z" id="Path-3" fill="#AAAAAA"></path>
            <path d="M122.9243,9.18233904 C123.375882,8.86438868 123.999711,8.97271826 124.317661,9.42429994 C124.635611,9.87588162 124.527282,10.4997106 124.0757,10.817661 L121.377419,12.7174711 C120.925837,13.0354215 120.302008,12.9270919 119.984058,12.4755102 C119.666108,12.0239286 119.774437,11.4000996 120.226019,11.0821492 L122.9243,9.18233904 Z M116.955375,13.3849495 C117.406957,13.0669991 118.030786,13.1753287 118.348736,13.6269104 C118.666686,14.078492 118.558357,14.702321 118.106775,15.0202714 L115.408494,16.9200815 C114.956912,17.2380319 114.333083,17.1297023 114.015133,16.6781207 C113.697183,16.226539 113.805512,15.60271 114.257094,15.2847596 L116.955375,13.3849495 Z M110.98645,17.5875599 C111.438032,17.2696095 112.061861,17.3779391 112.379811,17.8295208 C112.697761,18.2811025 112.589432,18.9049314 112.13785,19.2228818 L109.439569,21.122692 C108.987987,21.4406423 108.364158,21.3323127 108.046208,20.8807311 C107.728258,20.4291494 107.836587,19.8053204 108.288169,19.4873701 L110.98645,17.5875599 Z M105.017525,21.7901703 C105.469107,21.4722199 106.092936,21.5805495 106.410886,22.0321312 C106.728836,22.4837129 106.620507,23.1075418 106.168925,23.4254922 L103.470644,25.3253024 C103.019062,25.6432528 102.395233,25.5349232 102.077283,25.0833415 C101.759333,24.6317598 101.867662,24.0079308 102.319244,23.6899805 L105.017525,21.7901703 Z M99.0486002,25.9927807 C99.5001818,25.6748304 100.124011,25.7831599 100.441961,26.2347416 C100.759912,26.6863233 100.651582,27.3101523 100.2,27.6281026 L97.5017192,29.5279128 C97.0501375,29.8458632 96.4263085,29.7375336 96.1083582,29.2859519 C95.7904078,28.8343702 95.8987374,28.2105413 96.3503191,27.8925909 L99.0486002,25.9927807 Z M93.0796752,30.1953911 C93.5312569,29.8774408 94.1550859,29.9857704 94.4730362,30.437352 C94.7909866,30.8889337 94.682657,31.5127627 94.2310753,31.8307131 L91.5327942,33.7305232 C91.0812126,34.0484736 90.4573836,33.940144 90.1394332,33.4885623 C89.8214828,33.0369807 89.9298124,32.4131517 90.3813941,32.0952013 L93.0796752,30.1953911 Z M87.1107503,34.3980016 C87.562332,34.0800512 88.1861609,34.1883808 88.5041113,34.6399625 C88.8220617,35.0915441 88.7137321,35.7153731 88.2621504,36.0333235 L85.5638693,37.9331336 C85.1122876,38.251084 84.4884586,38.1427544 84.1705083,37.6911727 C83.8525579,37.2395911 83.9608875,36.6157621 84.4124692,36.2978117 L87.1107503,34.3980016 Z M81.1418253,38.600612 C81.593407,38.2826616 82.217236,38.3909912 82.5351864,38.8425729 C82.8531367,39.2941545 82.7448071,39.9179835 82.2932255,40.2359339 L79.5949443,42.1357441 C79.1433627,42.4536944 78.5195337,42.3453648 78.2015833,41.8937832 C77.883633,41.4422015 77.9919625,40.8183725 78.4435442,40.5004221 L81.1418253,38.600612 Z M75.1729004,42.8032224 C75.6244821,42.485272 76.2483111,42.5936016 76.5662614,43.0451833 C76.8842118,43.496765 76.7758822,44.1205939 76.3243005,44.4385443 L75.0757001,45.317661 C74.6241184,45.6356113 74.0002894,45.5272817 73.682339,45.0757001 C73.3643887,44.6241184 73.4727183,44.0002894 73.9242999,43.682339 L75.1729004,42.8032224 Z" id="Path-3" fill="#0054FF"></path>
            <g id="Group" transform="translate(114.000000, 0.000000)" fill="#0054FF">
                <path d="M10,18 C14.418278,18 18,14.418278 18,10 C18,5.581722 14.418278,2 10,2 C5.581722,2 2,5.581722 2,10 C2,14.418278 5.581722,18 10,18 Z M10,20 C4.4771525,20 0,15.5228475 0,10 C0,4.4771525 4.4771525,0 10,0 C15.5228475,0 20,4.4771525 20,10 C20,15.5228475 15.5228475,20 10,20 Z" id="Oval"></path>
                <path d="M10,18 C14.418278,18 18,14.418278 18,10 C18,5.581722 14.418278,2 10,2 C5.581722,2 2,5.581722 2,10 C2,14.418278 5.581722,18 10,18 Z" id="Path" fill-opacity="0.75"></path>
            </g>
            <path d="M19.1273201,139.5 L12.6729764,103.347012 C12.5015257,102.386658 13.2094762,101.5 14.1477195,101.5 L104.147719,101.5 C105.08597,101.5 105.793923,102.386672 105.622459,103.347032 L99.1676616,139.5 L96.1162754,139.5 L102.343208,104.623288 L15.9522071,104.623288 L22.1786991,139.5 L19.1273201,139.5 Z" id="Combined-Shape" fill="#AAAAAA"></path>
            <path d="M3.43507214,139.499591 L0.259372305,139.499591 L12.5829895,102.549411 C12.8547233,101.734666 13.7094242,101.303518 14.4920175,101.586416 C15.2746108,101.869314 15.6887443,102.759129 15.4170105,103.573875 L3.43507214,139.499591 Z" id="Combined-Shape" fill="#AAAAAA"></path>
            <path d="M117.941036,139.499591 L114.765337,139.499591 L102.783398,103.573875 C102.511664,102.759129 102.925798,101.869314 103.708391,101.586416 C104.490984,101.303518 105.345685,101.734666 105.617419,102.549411 L117.941036,139.499591 Z" id="Combined-Shape" fill="#AAAAAA"></path>
        </g>
    </g>
</svg>